<svg width="10" height="6" viewBox="0 0 10 6" fill="none" xmlns="http://www.w3.org/2000/svg">
<path d="M9.37021 1.18283L5.44496 5.18053C5.4085 5.2177 5.36521 5.24719 5.31756 5.26731C5.26991 5.28742 5.21883 5.29778 5.16724 5.29778C5.11566 5.29778 5.06458 5.28742 5.01693 5.26731C4.96928 5.24719 4.92599 5.2177 4.88953 5.18053L0.964275 1.18283C0.890621 1.10782 0.849243 1.00608 0.849243 0.899993C0.849243 0.793908 0.890621 0.692168 0.964275 0.617155C1.03793 0.542142 1.13782 0.5 1.24199 0.5C1.34615 0.5 1.44605 0.542142 1.5197 0.617155L5.16724 4.33252L8.81479 0.617155C8.85126 0.580012 8.89456 0.550549 8.94221 0.530447C8.98986 0.510346 9.04093 0.5 9.0925 0.5C9.14408 0.5 9.19515 0.510346 9.2428 0.530447C9.29045 0.550549 9.33374 0.580012 9.37021 0.617155C9.40668 0.654298 9.43561 0.698393 9.45535 0.746922C9.47509 0.795451 9.48525 0.847465 9.48525 0.899993C9.48525 0.95252 9.47509 1.00453 9.45535 1.05306C9.43561 1.10159 9.40668 1.14569 9.37021 1.18283Z" stroke="#191919"/>
</svg>
