<svg width="23" height="23" viewBox="0 0 23 23" fill="none" xmlns="http://www.w3.org/2000/svg">
<path d="M21.5957 0H0.899822C0.402108 0 0 0.402108 0 0.899822V21.5957C0 22.0934 0.402108 22.4955 0.899822 22.4955H21.5957C22.0934 22.4955 22.4955 22.0934 22.4955 21.5957V0.899822C22.4955 0.402108 22.0934 0 21.5957 0ZM18.9975 6.56589H17.2007C15.7919 6.56589 15.5191 7.23513 15.5191 8.21931V10.3873H18.8822L18.4435 13.7813H15.5191V22.4955H12.0126V13.7841H9.07976V10.3873H12.0126V7.88469C12.0126 4.97995 13.787 3.39683 16.3796 3.39683C17.6224 3.39683 18.6882 3.48962 19.0003 3.5318V6.56589H18.9975Z" fill="#656565"/>
</svg>
