<svg width="25" height="26" viewBox="0 0 25 26" fill="none" xmlns="http://www.w3.org/2000/svg">
<path d="M23.7963 17.3074L17.9075 14.6686L17.8913 14.6611C17.5856 14.5304 17.2521 14.4779 16.921 14.5084C16.5899 14.539 16.2716 14.6516 15.995 14.8361C15.9624 14.8576 15.9311 14.881 15.9013 14.9061L12.8588 17.4999C10.9313 16.5636 8.94126 14.5886 8.00501 12.6861L10.6025 9.59737C10.6275 9.56612 10.6513 9.53487 10.6738 9.50112C10.8543 9.22525 10.9638 8.90902 10.9926 8.58059C11.0214 8.25215 10.9686 7.92169 10.8388 7.61862V7.60362L8.19251 1.70487C8.02094 1.30895 7.72592 0.979138 7.35149 0.764667C6.97707 0.550196 6.54333 0.46257 6.11501 0.514869C4.42122 0.737753 2.86649 1.56958 1.74118 2.85499C0.61587 4.1404 -0.00305116 5.79148 1.13108e-05 7.49987C1.13108e-05 17.4249 8.07501 25.4999 18 25.4999C19.7084 25.5029 21.3595 24.884 22.6449 23.7587C23.9303 22.6334 24.7621 21.0787 24.985 19.3849C25.0374 18.9567 24.95 18.5231 24.7357 18.1487C24.5215 17.7743 24.1919 17.4791 23.7963 17.3074ZM18 23.4999C13.758 23.4952 9.691 21.808 6.69142 18.8085C3.69184 15.8089 2.00464 11.7419 2.00001 7.49987C1.99531 6.27923 2.43507 5.09861 3.23718 4.1785C4.03929 3.25839 5.14889 2.6617 6.35876 2.49987C6.35827 2.50486 6.35827 2.50988 6.35876 2.51487L8.98376 8.38987L6.40001 11.4824C6.37379 11.5125 6.34996 11.5447 6.32876 11.5786C6.14066 11.8673 6.0303 12.1996 6.0084 12.5434C5.9865 12.8873 6.0538 13.2309 6.20376 13.5411C7.33626 15.8574 9.67001 18.1736 12.0113 19.3049C12.3237 19.4534 12.6694 19.5184 13.0144 19.4934C13.3595 19.4684 13.6922 19.3544 13.98 19.1624C14.0121 19.1407 14.043 19.1174 14.0725 19.0924L17.1113 16.4999L22.9863 19.1311C22.9863 19.1311 22.9963 19.1311 23 19.1311C22.8402 20.3427 22.2444 21.4545 21.3241 22.2586C20.4038 23.0627 19.2221 23.504 18 23.4999Z" fill="#C0C0C0"/>
</svg>
