<svg width="23" height="24" viewBox="0 0 23 24" fill="none" xmlns="http://www.w3.org/2000/svg">
<path d="M11.5 0.54541C9.22552 0.54541 7.00211 1.21374 5.11095 2.46589C3.21978 3.71804 1.7458 5.49776 0.87539 7.58001C0.00498277 9.66226 -0.222756 11.9535 0.220974 14.164C0.664704 16.3745 1.75997 18.405 3.36828 19.9987C4.97658 21.5923 7.02568 22.6777 9.25646 23.1174C11.4872 23.557 13.7995 23.3314 15.9009 22.4689C18.0022 21.6064 19.7983 20.1458 21.0619 18.2718C22.3255 16.3979 23 14.1947 23 11.9409C22.9968 8.91958 21.7841 6.02295 19.6282 3.88658C17.4722 1.75021 14.549 0.548601 11.5 0.54541ZM8.58409 16.3237H14.4159C13.8221 18.3333 12.8269 20.1445 11.5 21.5711C10.1731 20.1445 9.17789 18.3333 8.58409 16.3237ZM8.1827 14.5706C7.8893 12.8295 7.8893 11.0522 8.1827 9.31114H14.8173C15.1107 11.0522 15.1107 12.8295 14.8173 14.5706H8.1827ZM1.76924 11.9409C1.76847 11.0516 1.89239 10.1666 2.13746 9.31114H6.39024C6.12634 11.0545 6.12634 12.8272 6.39024 14.5706H2.13746C1.89239 13.7151 1.76847 12.8301 1.76924 11.9409ZM14.4159 7.558H8.58409C9.17789 5.54845 10.1731 3.73723 11.5 2.31061C12.8269 3.73723 13.8221 5.54845 14.4159 7.558ZM16.6098 9.31114H20.8625C21.3535 11.0305 21.3535 12.8512 20.8625 14.5706H16.6098C16.8737 12.8272 16.8737 11.0545 16.6098 9.31114ZM20.1659 7.558H16.2482C15.7967 5.79774 15.0386 4.12911 14.0079 2.62727C15.3247 2.97792 16.5529 3.59777 17.6134 4.44696C18.674 5.29615 19.5434 6.35588 20.1659 7.558ZM8.99212 2.62727C7.96142 4.12911 7.20328 5.79774 6.75183 7.558H2.83409C3.45656 6.35588 4.32603 5.29615 5.38659 4.44696C6.44714 3.59777 7.67531 2.97792 8.99212 2.62727ZM2.83409 16.3237H6.75183C7.20328 18.084 7.96142 19.7526 8.99212 21.2545C7.67531 20.9038 6.44714 20.284 5.38659 19.4348C4.32603 18.5856 3.45656 17.5258 2.83409 16.3237ZM14.0079 21.2545C15.0386 19.7526 15.7967 18.084 16.2482 16.3237H20.1659C19.5434 17.5258 18.674 18.5856 17.6134 19.4348C16.5529 20.284 15.3247 20.9038 14.0079 21.2545Z" fill="#191919"/>
</svg>
