<svg width="25" height="24" viewBox="0 0 25 24" fill="none" xmlns="http://www.w3.org/2000/svg">
<path d="M18.4622 0H5.71216C2.60556 0 0.0871582 2.5184 0.0871582 5.625V18.375C0.0871582 21.4816 2.60556 24 5.71216 24H18.4622C21.5688 24 24.0872 21.4816 24.0872 18.375V5.625C24.0872 2.5184 21.5688 0 18.4622 0Z" fill="#656565"/>
<path d="M12.088 2.625C9.54194 2.625 9.22235 2.63616 8.22241 2.68162C7.22435 2.72738 6.54306 2.88534 5.947 3.11719C5.33031 3.35662 4.80728 3.67697 4.28622 4.19822C3.76469 4.71937 3.44435 5.24241 3.20416 5.85881C2.97166 6.45506 2.8135 7.13662 2.7686 8.13422C2.72388 9.13425 2.71216 9.45394 2.71216 12.0001C2.71216 14.5463 2.72341 14.8648 2.76878 15.8647C2.81472 16.8628 2.97269 17.5441 3.20435 18.1402C3.44397 18.7568 3.76431 19.2799 4.28556 19.8009C4.80653 20.3225 5.32956 20.6436 5.94578 20.883C6.54231 21.1148 7.22369 21.2728 8.22156 21.3186C9.2216 21.364 9.54091 21.3752 12.0869 21.3752C14.6332 21.3752 14.9518 21.364 15.9517 21.3186C16.9498 21.2728 17.6318 21.1148 18.2283 20.883C18.8448 20.6436 19.367 20.3225 19.8879 19.8009C20.4094 19.2799 20.7297 18.7568 20.97 18.1404C21.2004 17.5441 21.3587 16.8626 21.4055 15.8649C21.4504 14.865 21.4622 14.5463 21.4622 12.0001C21.4622 9.45394 21.4504 9.13444 21.4055 8.13441C21.3587 7.13634 21.2004 6.45516 20.97 5.85909C20.7297 5.24241 20.4094 4.71937 19.8879 4.19822C19.3665 3.67678 18.8449 3.35644 18.2278 3.11728C17.6301 2.88534 16.9485 2.72728 15.9504 2.68162C14.9504 2.63616 14.632 2.625 12.0851 2.625H12.088ZM11.247 4.31447C11.4966 4.31409 11.7752 4.31447 12.088 4.31447C14.5912 4.31447 14.8878 4.32347 15.8763 4.36837C16.7904 4.41019 17.2865 4.56291 17.617 4.69125C18.0545 4.86112 18.3664 5.06428 18.6944 5.3925C19.0225 5.72062 19.2256 6.03309 19.3959 6.47062C19.5243 6.80062 19.6772 7.29675 19.7188 8.21081C19.7637 9.19912 19.7734 9.49594 19.7734 11.9979C19.7734 14.4999 19.7637 14.7968 19.7188 15.7851C19.677 16.6991 19.5243 17.1952 19.3959 17.5253C19.226 17.9629 19.0225 18.2744 18.6944 18.6023C18.3663 18.9305 18.0547 19.1335 17.617 19.3035C17.2869 19.4324 16.7904 19.5847 15.8763 19.6266C14.888 19.6715 14.5912 19.6812 12.088 19.6812C9.58469 19.6812 9.28797 19.6715 8.29975 19.6266C7.38569 19.5844 6.88956 19.4317 6.55881 19.3033C6.12138 19.1333 5.80881 18.9303 5.48069 18.6022C5.15256 18.274 4.9495 17.9623 4.77916 17.5246C4.65081 17.1945 4.49791 16.6984 4.45628 15.7843C4.41138 14.796 4.40238 14.4992 4.40238 11.9956C4.40238 9.49209 4.41138 9.19678 4.45628 8.20847C4.4981 7.29441 4.65081 6.79828 4.77916 6.46781C4.94913 6.03028 5.15256 5.71781 5.48078 5.38969C5.80891 5.06156 6.12138 4.85841 6.55891 4.68816C6.88938 4.55925 7.38569 4.40691 8.29975 4.36491C9.1646 4.32581 9.49975 4.31409 11.247 4.31212V4.31447ZM17.0924 5.87109C16.4713 5.87109 15.9674 6.37453 15.9674 6.99572C15.9674 7.61681 16.4713 8.12072 17.0924 8.12072C17.7135 8.12072 18.2174 7.61681 18.2174 6.99572C18.2174 6.37463 17.7135 5.87072 17.0924 5.87072V5.87109ZM12.088 7.18556C9.42925 7.18556 7.27356 9.34125 7.27356 12.0001C7.27356 14.6589 9.42925 16.8136 12.088 16.8136C14.7468 16.8136 16.9018 14.6589 16.9018 12.0001C16.9018 9.34134 14.7468 7.18556 12.088 7.18556ZM12.088 8.87503C13.8138 8.87503 15.2131 10.2741 15.2131 12.0001C15.2131 13.7259 13.8138 15.1252 12.088 15.1252C10.3621 15.1252 8.96303 13.7259 8.96303 12.0001C8.96303 10.2741 10.3621 8.87503 12.088 8.87503Z" fill="white"/>
</svg>
