<svg width="28" height="28" viewBox="0 0 28 28" fill="none" xmlns="http://www.w3.org/2000/svg">
<path d="M18.3355 14.4516C18.3355 15.3091 18.0813 16.1473 17.6049 16.8603C17.1285 17.5732 16.4514 18.1289 15.6592 18.4571C14.867 18.7852 13.9952 18.871 13.1542 18.7038C12.3132 18.5365 11.5407 18.1236 10.9344 17.5172C10.3281 16.9109 9.91515 16.1384 9.74787 15.2974C9.58058 14.4564 9.66644 13.5847 9.99458 12.7925C10.3227 12.0003 10.8784 11.3232 11.5914 10.8468C12.3043 10.3704 13.1426 10.1161 14 10.1161C15.1488 10.1197 16.2495 10.5776 17.0618 11.3899C17.874 12.2022 18.332 13.3028 18.3355 14.4516ZM27.5484 8.4903V20.4129C27.5484 22.4251 26.7491 24.3549 25.3262 25.7778C23.9034 27.2006 21.9736 28 19.9613 28H8.03876C6.02653 28 4.09673 27.2006 2.67387 25.7778C1.25101 24.3549 0.45166 22.4251 0.45166 20.4129V8.4903C0.45166 6.47807 1.25101 4.54826 2.67387 3.12541C4.09673 1.70255 6.02653 0.903198 8.03876 0.903198H19.9613C21.9736 0.903198 23.9034 1.70255 25.3262 3.12541C26.7491 4.54826 27.5484 6.47807 27.5484 8.4903ZM20.5033 14.4516C20.5033 13.1654 20.1219 11.908 19.4073 10.8386C18.6927 9.76914 17.677 8.9356 16.4887 8.44339C15.3004 7.95118 13.9928 7.82239 12.7313 8.07332C11.4698 8.32425 10.3111 8.94362 9.40157 9.85311C8.49208 10.7626 7.87271 11.9214 7.62178 13.1829C7.37085 14.4444 7.49964 15.752 7.99185 16.9403C8.48406 18.1286 9.3176 19.1442 10.387 19.8588C11.4565 20.5734 12.7138 20.9548 14 20.9548C15.7248 20.9548 17.3789 20.2697 18.5985 19.0501C19.8181 17.8305 20.5033 16.1763 20.5033 14.4516ZM22.671 7.40642C22.671 7.08487 22.5757 6.77054 22.397 6.50317C22.2184 6.23581 21.9645 6.02743 21.6674 5.90437C21.3703 5.78132 21.0434 5.74913 20.728 5.81186C20.4127 5.87459 20.123 6.02943 19.8956 6.25681C19.6682 6.48418 19.5134 6.77387 19.4506 7.08924C19.3879 7.40462 19.4201 7.73152 19.5432 8.02859C19.6662 8.32567 19.8746 8.57959 20.142 8.75823C20.4093 8.93688 20.7237 9.03223 21.0452 9.03223C21.4764 9.03223 21.8899 8.86094 22.1948 8.55604C22.4997 8.25115 22.671 7.83762 22.671 7.40642Z" fill="#191919"/>
</svg>
