<svg width="21" height="22" viewBox="0 0 21 22" fill="none" xmlns="http://www.w3.org/2000/svg">
<path d="M19.9238 19.753L15.0784 14.9085C16.4828 13.2225 17.1831 11.0598 17.0336 8.87058C16.8841 6.68132 15.8964 4.63396 14.2759 3.15441C12.6553 1.67486 10.5268 0.877029 8.33297 0.926886C6.13918 0.976744 4.04906 1.87045 2.49741 3.4221C0.94577 4.97374 0.0520611 7.06386 0.00220355 9.25765C-0.047654 11.4514 0.750178 13.58 2.22973 15.2005C3.70928 16.8211 5.75664 17.8088 7.9459 17.9583C10.1352 18.1077 12.2978 17.4074 13.9838 16.003L18.8283 20.8485C18.9002 20.9204 18.9856 20.9775 19.0796 21.0164C19.1736 21.0553 19.2743 21.0754 19.3761 21.0754C19.4778 21.0754 19.5785 21.0553 19.6725 21.0164C19.7665 20.9775 19.8519 20.9204 19.9238 20.8485C19.9957 20.7765 20.0528 20.6912 20.0917 20.5972C20.1306 20.5032 20.1507 20.4025 20.1507 20.3007C20.1507 20.199 20.1306 20.0983 20.0917 20.0043C20.0528 19.9103 19.9957 19.8249 19.9238 19.753ZM1.56976 9.46213C1.56976 8.08405 1.97841 6.73692 2.74403 5.59109C3.50965 4.44526 4.59785 3.5522 5.87103 3.02483C7.1442 2.49746 8.54517 2.35948 9.89677 2.62833C11.2484 2.89718 12.4899 3.56078 13.4643 4.53523C14.4388 5.50968 15.1024 6.7512 15.3712 8.1028C15.6401 9.4544 15.5021 10.8554 14.9747 12.1285C14.4474 13.4017 13.5543 14.4899 12.4085 15.2555C11.2627 16.0212 9.91552 16.4298 8.53744 16.4298C6.69013 16.4278 4.91906 15.693 3.61281 14.3868C2.30656 13.0805 1.57181 11.3094 1.56976 9.46213Z" fill="#656565"/>
</svg>
