<svg width="22" height="22" viewBox="0 0 22 22" fill="none" xmlns="http://www.w3.org/2000/svg">
<path d="M8.55556 0V2.44444H2.44444V19.5556H19.5556V13.4444H22V20.7778C22 21.1019 21.8712 21.4128 21.642 21.642C21.4128 21.8712 21.1019 22 20.7778 22H1.22222C0.898069 22 0.587192 21.8712 0.357981 21.642C0.128769 21.4128 0 21.1019 0 20.7778V1.22222C0 0.898069 0.128769 0.587192 0.357981 0.357981C0.587192 0.128769 0.898069 0 1.22222 0H8.55556ZM17.9752 5.753L11 12.7282L9.27178 11L16.247 4.02478L12.2222 0H22V9.77778L17.9752 5.753Z" fill="#656565"/>
</svg>
