<svg width="27" height="23" viewBox="0 0 27 23" fill="none" xmlns="http://www.w3.org/2000/svg">
<path d="M8.22805 22.2903C18.1128 22.2903 23.5202 13.9483 23.5202 6.72678C23.5202 6.49334 23.5202 6.25657 23.5103 6.02313C24.5631 5.24693 25.4717 4.28595 26.1935 3.18521C25.2102 3.62682 24.1681 3.91788 23.1011 4.04892C24.225 3.36468 25.0668 2.28809 25.47 1.01925C24.414 1.65641 23.2583 2.10369 22.0533 2.3415C21.2433 1.46282 20.1713 0.880718 19.0036 0.685365C17.8358 0.490011 16.6374 0.692308 15.5939 1.26092C14.5504 1.82953 13.7202 2.73272 13.2318 3.8306C12.7433 4.92847 12.6239 6.15975 12.8921 7.33371C10.7553 7.22458 8.66485 6.65919 6.75637 5.67422C4.84788 4.68924 3.16399 3.30667 1.8139 1.61618C1.12852 2.82185 0.919351 4.24801 1.22888 5.60506C1.53841 6.9621 2.34343 8.14829 3.48047 8.92275C2.62842 8.89326 1.79511 8.66023 1.04774 8.24245V8.31748C1.04921 9.58051 1.4788 10.8043 2.2639 11.7819C3.049 12.7596 4.14144 13.4312 5.35658 13.6832C4.89535 13.8126 4.4189 13.8771 3.94049 13.8749C3.60322 13.876 3.26663 13.8442 2.93531 13.7799C3.27876 14.8671 3.94749 15.8177 4.84785 16.4986C5.74821 17.1794 6.8351 17.5563 7.95629 17.5766C6.05162 19.1003 3.69886 19.9266 1.27694 19.9226C0.850178 19.9245 0.423719 19.8994 0 19.8476C2.45813 21.4437 5.31287 22.2913 8.22805 22.2903Z" fill="#191919"/>
</svg>
