<svg width="36" height="25" viewBox="0 0 36 25" fill="none" xmlns="http://www.w3.org/2000/svg">
<path d="M17.7263 0.709717H17.9223C19.7321 0.715985 28.9024 0.778671 31.3749 1.4097C32.1224 1.60228 32.8036 1.97767 33.3503 2.49834C33.897 3.01902 34.2901 3.66674 34.4904 4.37679C34.7128 5.1708 34.8691 6.22181 34.9748 7.30626L34.9968 7.52357L35.0453 8.06684L35.0629 8.28415C35.206 10.1939 35.2236 11.9826 35.2258 12.3733V12.53C35.2236 12.9354 35.2038 14.8452 35.0453 16.8344L35.0276 17.0538L35.0078 17.2711C34.8977 18.4663 34.7348 19.6531 34.4904 20.5265C34.2907 21.2368 33.8978 21.8849 33.351 22.4056C32.8042 22.9264 32.1227 23.3016 31.3749 23.4936C28.8209 24.1455 19.1134 24.1915 17.7681 24.1936H17.4555C16.7751 24.1936 13.9613 24.1811 11.011 24.0849L10.6367 24.0724L10.4451 24.064L10.0686 24.0494L9.69211 24.0348C7.24816 23.9324 4.92091 23.7673 3.84866 23.4915C3.10114 23.2997 2.41987 22.9248 1.87308 22.4044C1.3263 21.8841 0.933205 21.2365 0.733183 20.5265C0.488789 19.6552 0.325859 18.4663 0.215772 17.2711L0.198158 17.0517L0.180544 16.8344C0.0718819 15.4185 0.011669 13.9997 0 12.5802L0 12.3231C0.0044035 11.8739 0.0220175 10.3214 0.140912 8.60802L0.156324 8.3928L0.16293 8.28415L0.180544 8.06684L0.228982 7.52357L0.251 7.30626C0.356684 6.22181 0.513008 5.16871 0.735385 4.37679C0.935069 3.66646 1.32801 3.01843 1.87482 2.49766C2.42163 1.9769 3.10308 1.60171 3.85086 1.4097C4.92311 1.13806 7.25036 0.970904 9.69431 0.866429L10.0686 0.851803L10.4473 0.839266L10.6367 0.832997L11.0132 0.818371C13.1086 0.754379 15.2049 0.718854 17.3014 0.711806H17.7263V0.709717ZM14.0912 7.41701V17.4842L23.2439 12.4527L14.0912 7.41701Z" fill="#191919"/>
</svg>
