<svg width="31" height="24" viewBox="0 0 31 24" fill="none" xmlns="http://www.w3.org/2000/svg">
<path d="M15.6531 0C16.4432 0.00444466 18.42 0.0237048 20.5211 0.108153L21.2669 0.140747C23.3813 0.240011 25.4942 0.411871 26.5433 0.703737C27.9416 1.09783 29.0395 2.24455 29.4109 3.69944C30.0027 6.01066 30.0767 10.5175 30.0856 11.6094L30.0871 11.8346V12.0924C30.0767 13.1843 30.0027 17.6927 29.4109 20.0024C29.035 21.4618 27.9356 22.61 26.5433 22.9981C25.4942 23.29 23.3813 23.4619 21.2669 23.5611L20.5211 23.5952C18.42 23.6782 16.4432 23.6989 15.6531 23.7019L15.3054 23.7034H14.9281C13.2561 23.693 6.26327 23.6174 4.03788 22.9981C2.64109 22.604 1.54172 21.4573 1.17032 20.0024C0.578466 17.6912 0.504483 13.1843 0.495605 12.0924V11.6094C0.504483 10.5175 0.578466 6.00918 1.17032 3.69944C1.54615 2.24011 2.64553 1.0919 4.03936 0.705219C6.26327 0.0844482 13.2576 0.00888931 14.9296 0H15.6531ZM12.3313 6.66698V17.0378L21.2092 11.8524L12.3313 6.66698Z" fill="#656565"/>
</svg>
